<svg xmlns="http://www.w3.org/2000/svg" xmlns:xlink="http://www.w3.org/1999/xlink" width="1080" zoomAndPan="magnify" viewBox="0 0 810 809.999993" height="1080" preserveAspectRatio="xMidYMid meet" version="1.0"><path fill="#ee826c" d="M 405 43.589844 C 604.601562 43.589844 766.414062 205.402344 766.414062 405.011719 C 766.414062 604.613281 604.59375 766.394531 405 766.394531 C 205.425781 766.394531 43.609375 604.605469 43.609375 405.011719 C 43.609375 205.402344 205.425781 43.589844 405 43.589844 Z M 405 43.589844 " fill-opacity="1" fill-rule="nonzero"/><path fill="#ee826c" d="M 405 809.972656 C 181.683594 809.972656 0 628.289062 0 405.003906 C 0 181.6875 181.675781 0.0273438 405 0.0273438 C 628.324219 0.0273438 810 181.6875 810 405.003906 C 810 628.296875 628.316406 809.972656 405 809.972656 Z M 405 27.785156 C 197.023438 27.785156 27.757812 197.003906 27.757812 405.003906 C 27.757812 613.003906 197.023438 782.214844 405 782.214844 C 613.007812 782.214844 782.242188 612.996094 782.242188 405.003906 C 782.242188 197.003906 613 27.785156 405 27.785156 Z M 405 27.785156 " fill-opacity="1" fill-rule="nonzero"/><path fill="#ffffff" d="M 417.386719 459.023438 L 318.96875 459.648438 L 314.683594 473.070312 C 311.429688 482.011719 311.703125 489.4375 315.46875 495.34375 C 319.238281 501.25 327.152344 504.132812 339.1875 504.074219 L 356.941406 503.9375 L 357.703125 619.460938 L 163.660156 620.789062 L 162.898438 505.210938 L 175.664062 505.121094 C 190.625 505.015625 200.597656 502 205.667969 496.039062 C 210.707031 490.085938 215.589844 481.378906 220.28125 469.941406 L 283.109375 311.917969 C 287.582031 299.824219 288.34375 290.941406 285.28125 285.246094 C 282.21875 279.582031 273.140625 276.789062 257.960938 276.871094 L 251.449219 276.925781 L 250.664062 161.332031 L 570.878906 159.265625 L 571.640625 274.820312 L 565.378906 274.84375 C 550.015625 274.984375 540.851562 278.042969 537.871094 284.0625 C 534.949219 290.164062 535.871094 298.863281 540.722656 310.242188 L 605.613281 467.421875 C 608.15625 473.222656 610.417969 478.234375 612.417969 482.488281 C 614.367188 486.71875 616.863281 490.355469 619.820312 493.335938 C 622.710938 496.316406 626.648438 498.566406 631.523438 499.945312 C 636.457031 501.386719 642.695312 502.058594 650.414062 502 L 663.179688 501.945312 L 663.917969 617.5 L 380.804688 619.320312 L 380.042969 503.765625 L 397.175781 503.652344 C 409.019531 503.546875 416.929688 500.59375 420.917969 494.605469 C 424.933594 488.667969 425.226562 481.25 421.839844 472.324219 Z M 334.546875 411 L 400.902344 410.5625 L 369.101562 315.101562 L 366.605469 315.125 Z M 334.546875 411 " fill-opacity="1" fill-rule="nonzero"/></svg>