<svg xmlns="http://www.w3.org/2000/svg" xmlns:xlink="http://www.w3.org/1999/xlink" width="1080" zoomAndPan="magnify" viewBox="0 0 810 809.999993" height="1080" preserveAspectRatio="xMidYMid meet" version="1.0"><path fill="#ee826c" d="M 405 43.589844 C 604.601562 43.589844 766.414062 205.402344 766.414062 405.011719 C 766.414062 604.613281 604.59375 766.394531 405 766.394531 C 205.425781 766.394531 43.609375 604.605469 43.609375 405.011719 C 43.609375 205.402344 205.425781 43.589844 405 43.589844 Z M 405 43.589844 " fill-opacity="1" fill-rule="nonzero"/><path fill="#ee826c" d="M 405 809.972656 C 181.683594 809.972656 0 628.3125 0 405.003906 C 0 181.6875 181.675781 0.0273438 405 0.0273438 C 628.324219 0.0273438 810 181.710938 810 405.027344 C 810 628.320312 628.316406 809.972656 405 809.972656 Z M 405 27.785156 C 197.023438 27.785156 27.757812 196.980469 27.757812 405.003906 C 27.757812 613.027344 197.023438 782.195312 405 782.195312 C 613.007812 782.195312 782.242188 613.003906 782.242188 405.011719 C 782.242188 196.980469 613 27.785156 405 27.785156 Z M 405 27.785156 " fill-opacity="1" fill-rule="nonzero"/><path fill="#ffffff" d="M 647.722656 297.664062 C 648.1875 361.742188 615.042969 396.976562 548.433594 403.457031 L 548.433594 406.738281 C 583.320312 407.304688 610.78125 416.636719 630.925781 434.738281 C 651.085938 452.792969 661.25 479.078125 661.46875 513.503906 C 661.582031 527.921875 659.949219 542.039062 656.644531 556.003906 C 653.335938 569.9375 646.070312 582.320312 634.804688 593.25 C 623.578125 604.09375 607.3125 613.035156 586.066406 619.976562 C 564.757812 626.910156 536.140625 630.492188 500.085938 630.765625 L 169.839844 632.882812 L 169.105469 521.53125 C 186.753906 521.367188 199.355469 518.988281 206.921875 514.191406 C 214.488281 509.421875 218.222656 500.550781 218.140625 487.519531 L 217.167969 335.628906 C 217.089844 322.425781 213.183594 313.480469 205.5625 308.839844 C 197.921875 304.183594 185.320312 301.90625 167.695312 302.035156 L 166.988281 190.660156 L 517.914062 188.386719 C 545.535156 188.144531 567.84375 191.15625 584.917969 197.199219 C 601.945312 203.355469 615.113281 211.453125 624.40625 221.597656 C 633.65625 231.730469 639.882812 243.441406 642.945312 256.78125 C 646.046875 270.019531 647.644531 283.65625 647.722656 297.664062 Z M 394.566406 381.011719 L 439.945312 380.6875 C 452.296875 380.632812 461.277344 376.621094 466.722656 368.660156 C 472.171875 360.738281 474.855469 351.121094 474.773438 339.921875 C 474.714844 329.351562 471.875 320.003906 466.316406 312.066406 C 460.785156 304.125 451.816406 300.132812 439.402344 300.214844 L 394.058594 300.546875 Z M 440.1875 519.734375 C 456.984375 519.628906 468.59375 516.265625 474.960938 509.785156 C 481.300781 503.226562 484.476562 492.304688 484.363281 477.125 C 484.28125 461.890625 480.976562 450.859375 474.554688 443.996094 C 468.132812 437.113281 456.5 433.75 439.636719 433.863281 L 394.941406 434.164062 L 395.472656 520.007812 Z M 440.1875 519.734375 " fill-opacity="1" fill-rule="nonzero"/></svg>