<svg xmlns="http://www.w3.org/2000/svg" xmlns:xlink="http://www.w3.org/1999/xlink" width="1080" zoomAndPan="magnify" viewBox="0 0 810 809.999993" height="1080" preserveAspectRatio="xMidYMid meet" version="1.0"><path fill="#ee826c" d="M 405 43.589844 C 604.601562 43.589844 766.414062 205.402344 766.414062 405.011719 C 766.414062 604.613281 604.59375 766.394531 405 766.394531 C 205.425781 766.394531 43.609375 604.605469 43.609375 405.011719 C 43.609375 205.402344 205.425781 43.589844 405 43.589844 Z M 405 43.589844 " fill-opacity="1" fill-rule="nonzero"/><path fill="#ee826c" d="M 405 809.972656 C 181.683594 809.972656 0 628.3125 0 405.003906 C 0 181.6875 181.675781 0.0273438 405 0.0273438 C 628.324219 0.0273438 810 181.710938 810 405.027344 C 810 628.320312 628.316406 809.972656 405 809.972656 Z M 405 27.785156 C 197.023438 27.785156 27.757812 196.980469 27.757812 405.003906 C 27.757812 613.027344 197.023438 782.195312 405 782.195312 C 613.007812 782.195312 782.242188 613.003906 782.242188 405.011719 C 782.242188 196.980469 613 27.785156 405 27.785156 Z M 405 27.785156 " fill-opacity="1" fill-rule="nonzero"/><path fill="#ffffff" d="M 397.433594 166.449219 C 411.34375 166.371094 424.375 167.398438 436.574219 169.601562 C 448.714844 171.796875 459.828125 174.722656 469.785156 178.269531 C 479.777344 181.816406 488.453125 185.582031 495.746094 189.601562 C 503.035156 193.578125 509.003906 197.207031 513.546875 200.550781 L 513.410156 178.105469 L 616.214844 177.449219 L 617.332031 347.242188 L 508.292969 347.949219 C 508.203125 334.007812 506.421875 322.417969 502.953125 313.0625 C 499.421875 303.738281 494.820312 296.195312 489.070312 290.421875 C 483.328125 284.652344 476.605469 280.53125 468.910156 278.09375 C 461.183594 275.65625 452.886719 274.464844 443.96875 274.519531 C 431.722656 274.601562 421.28125 277.015625 412.558594 281.761719 C 403.859375 286.476562 396.8125 294.074219 391.359375 304.476562 C 385.941406 314.882812 381.816406 328.710938 379.160156 345.972656 C 376.511719 363.242188 375.207031 384.21875 375.371094 408.917969 C 375.53125 434.066406 377.160156 455.070312 380.296875 471.992188 C 383.445312 488.871094 388.078125 502.558594 394.285156 513.027344 C 400.496094 523.484375 408.351562 531.023438 417.976562 535.625 C 427.550781 540.234375 438.988281 542.460938 452.261719 542.40625 C 461.183594 542.347656 469.777344 540.558594 478.085938 537.089844 C 486.378906 533.625 493.648438 528.34375 499.964844 521.207031 C 506.25 514.109375 511.125 505.296875 514.707031 494.648438 C 518.253906 484.019531 520.011719 471.230469 519.9375 456.269531 L 628.332031 455.597656 C 628.503906 481.996094 624.476562 506.933594 616.328125 530.425781 C 608.195312 553.980469 595.351562 574.632812 577.8125 592.339844 C 560.246094 610.121094 537.914062 624.261719 510.785156 634.839844 C 483.652344 645.410156 451.398438 650.75 414.023438 651.050781 C 380.390625 651.261719 348.566406 646.925781 318.507812 637.960938 C 288.417969 629.035156 262.15625 614.859375 239.710938 595.484375 C 217.21875 576.132812 199.429688 551.167969 186.226562 520.625 C 173.058594 490.101562 166.332031 453.296875 166.035156 410.332031 C 165.765625 367.316406 172.109375 330.460938 185.117188 299.800781 C 198.101562 269.0625 215.363281 243.855469 236.964844 224.203125 C 258.511719 204.554688 283.199219 190.078125 310.933594 180.753906 C 338.703125 171.390625 367.539062 166.621094 397.433594 166.449219 Z M 397.433594 166.449219 " fill-opacity="1" fill-rule="nonzero"/></svg>