<svg xmlns="http://www.w3.org/2000/svg" xmlns:xlink="http://www.w3.org/1999/xlink" width="1080" zoomAndPan="magnify" viewBox="0 0 810 809.999993" height="1080" preserveAspectRatio="xMidYMid meet" version="1.0"><path fill="#ee826c" d="M 405 43.589844 C 604.601562 43.589844 766.414062 205.402344 766.414062 405.011719 C 766.414062 604.613281 604.59375 766.394531 405 766.394531 C 205.425781 766.394531 43.609375 604.605469 43.609375 405.011719 C 43.609375 205.402344 205.425781 43.589844 405 43.589844 Z M 405 43.589844 " fill-opacity="1" fill-rule="nonzero"/><path fill="#ee826c" d="M 405 809.972656 C 181.683594 809.972656 0 628.289062 0 405.003906 C 0 181.6875 181.675781 0.0273438 405 0.0273438 C 628.324219 0.0273438 810 181.6875 810 405.003906 C 810 628.296875 628.316406 809.972656 405 809.972656 Z M 405 27.785156 C 197.023438 27.785156 27.757812 197.003906 27.757812 405.003906 C 27.757812 613.003906 197.023438 782.214844 405 782.214844 C 613.007812 782.214844 782.242188 612.996094 782.242188 405.003906 C 782.242188 197.003906 613 27.785156 405 27.785156 Z M 405 27.785156 " fill-opacity="1" fill-rule="nonzero"/><path fill="#ffffff" d="M 174.148438 625.800781 L 173.414062 516.183594 C 190.738281 516.078125 203.148438 513.691406 210.609375 509.03125 C 218.085938 504.367188 221.746094 495.617188 221.632812 482.796875 L 220.660156 333.34375 C 220.578125 320.351562 216.78125 311.570312 209.28125 306.96875 C 201.761719 302.417969 189.328125 300.164062 172.003906 300.269531 L 171.296875 190.695312 L 484.710938 188.628906 C 512.890625 188.464844 540.164062 192.015625 566.621094 199.304688 C 593.050781 206.617188 616.597656 218.710938 637.332031 235.496094 C 658.011719 252.292969 674.707031 274.601562 687.398438 302.359375 C 700.074219 330.175781 706.554688 364.429688 706.804688 405.199219 C 707.105469 445.957031 701.167969 480.277344 689.003906 508.109375 C 676.882812 535.972656 660.296875 558.417969 639.234375 575.492188 C 618.144531 592.566406 593.480469 604.953125 565.175781 612.65625 C 536.828125 620.261719 506.769531 624.253906 474.871094 624.472656 Z M 423.921875 514.566406 C 434.734375 514.507812 445.304688 513.261719 455.65625 510.796875 C 466.007812 508.351562 475.015625 503.371094 482.769531 495.855469 C 490.488281 488.320312 496.773438 477.507812 501.601562 463.355469 C 506.460938 449.261719 508.785156 430.316406 508.625 406.46875 C 508.484375 383.019531 505.964844 364.210938 501.171875 349.933594 C 496.3125 335.699219 490.105469 324.78125 482.460938 317.136719 C 474.847656 309.488281 465.742188 304.5 455.195312 302.09375 C 444.648438 299.703125 433.761719 298.546875 422.535156 298.617188 L 394.753906 298.804688 L 396.164062 514.71875 Z M 423.921875 514.566406 " fill-opacity="1" fill-rule="nonzero"/></svg>